#!OML:ASF H:\Terrain\Patient Classification 1\Terrain2\Thursday\justin.ASF
:FULLY-SPECIFIED
:DEGREES
3708
root 15.4912 20.1811 -10.9139 1663.7 80.9373 224.102
lowerback 8.38303 -2.19095 4.08211
upperback 1.81428 -2.21029 5.02017
thorax -2.77702 -1.03869 3.15156
lowerneck -15.0037 -4.23503 -10.5242
upperneck 37.6517 -3.08273 4.21978
head 16.2946 -1.72408 3.30285
rclavicle -4.63168e-014 5.80451e-014
rhumerus -31.1902 -10.0002 -76.8214
rradius 33.013
rwrist -13.9378
rhand -23.186 13.3352
rfingers 7.12502
rthumb 3.26348 -16.6196
lclavicle -4.63168e-014 5.80451e-014
lhumerus -30.0621 6.53721 87.7052
lradius 22.59
lwrist -8.30532
lhand -16.8046 20.9559
lfingers 7.12502
lthumb 9.42387 50.7252
rfemur -22.8585 -3.44145 29.9818
rtibia 44.491
rfoot -19.7253 5.67505
rtoes 31.4497
lfemur -7.07467 1.64051 -12.7149
ltibia 56.1833
lfoot 29.1563 0.580664
ltoes 20.6564
3709
root 15.5888 20.223 -10.9219 1662.41 81.3684 222.788
lowerback 8.29948 -2.06652 3.748
upperback 1.78764 -2.09691 4.84333
thorax -2.75509 -0.985835 3.13844
lowerneck -14.9972 -4.29065 -10.3192
upperneck 37.4209 -3.19034 4.03859
head 16.1737 -1.76552 3.15607
rclavicle -6.16232e-015 -1.11319e-014
rhumerus -30.9188 -10.4552 -76.7997
rradius 33.1073
rwrist -13.369
rhand -23.1394 13.4494
rfingers 7.12502
rthumb 3.30844 -16.5046
lclavicle -6.16232e-015 -1.11319e-014
lhumerus -30.5635 7.06911 87.3555
lradius 22.339
lwrist -8.8945
lhand -16.5913 20.7644
lfingers 7.12502
lthumb 9.62965 50.5243
rfemur -22.0988 -4.68087 30.0242
rtibia 42.9304
rfoot -19.5732 4.06209
rtoes 20.2812
lfemur -8.7332 2.15578 -13.2666
ltibia 58.9647
lfoot 27.7769 -0.349542
ltoes 19.167
3710
root 15.6975 20.2932 -10.919 1663.53 81.4138 224.192
lowerback 8.46052 -1.89431 3.99509
upperback 1.80448 -1.84153 4.71051
thorax -2.8461 -0.861669 2.83947
lowerneck -14.9384 -4.4006 -10.0747
upperneck 37.2285 -3.45991 4.03514
head 16.0775 -1.84319 3.05512
rclavicle -1.85864e-014 1.82882e-014
rhumerus -31.1406 -10.5057 -76.9878
rradius 33.8058
rwrist -13.2898
rhand -23.0608 13.097
rfingers 7.12502
rthumb 3.38439 -16.8559
lclavicle -1.85864e-014 1.82882e-014
lhumerus -31.0819 7.14676 87.027
lradius 22.0908
lwrist -9.25619
lhand -16.683 20.482
lfingers 7.12502
lthumb 9.54117 50.246
rfemur -20.5978 -4.49264 30.0438
rtibia 41.674
rfoot -19.4969 4.65189
rtoes 22.4724
lfemur -9.97912 2.75696 -13.0647
ltibia 61.5368
lfoot 26.0945 -1.50214
ltoes 17.8755
3711
root 15.8188 20.3648 -10.9174 1665.61 81.1906 226.755
lowerback 8.62891 -1.79035 4.58247
upperback 1.91852 -1.64191 4.61745
thorax -2.8446 -0.763148 2.39488
lowerneck -14.7957 -4.50832 -9.98314
upperneck 37.0147 -3.78429 4.29604
head 15.9666 -1.92987 3.08806
rclavicle 1.76918e-014 -1.43125e-014
rhumerus -31.0563 -10.6973 -77.2256
rradius 33.9294
rwrist -13.3186
rhand -23.0175 13.2385
rfingers 7.12502
rthumb 3.42623 -16.7137
lclavicle 1.76918e-014 -1.43125e-014
lhumerus -31.6438 6.80487 86.7582
lradius 22.014
lwrist -8.90226
lhand -17.0404 20.6028
lfingers 7.12502
lthumb 9.19635 50.3823
rfemur -18.5364 -4.19181 30.2507
rtibia 40.0372
rfoot -19.4604 5.50568
rtoes 26.0822
lfemur -10.8832 3.1163 -12.498
ltibia 64.0864
lfoot 23.9011 -2.04613
ltoes 18.148
3712
root 15.9247 20.4206 -10.928 1663.32 81.6114 224.628
lowerback 8.63356 -1.78674 4.21252
upperback 1.97047 -1.69047 4.40967
thorax -2.78791 -0.789084 2.38902
lowerneck -14.917 -4.45666 -10.1949
upperneck 36.9677 -3.72725 4.53733
head 15.9789 -1.90479 3.23914
rclavicle 2.68359e-014 -5.88403e-014
rhumerus -30.1114 -9.74368 -77.596
rradius 32.9558
rwrist -14.1102
rhand -23.4296 14.0619
rfingers 7.12502
rthumb 3.0282 -15.8963
lclavicle 2.68359e-014 -5.88403e-014
lhumerus -32.2825 7.01832 86.4968
lradius 22.1863
lwrist -8.35115
lhand -17.3626 20.9368
lfingers 7.12502
lthumb 8.88541 50.7297
rfemur -17.1077 -4.49496 29.6507
rtibia 38.4465
rfoot -19.528 5.49289
rtoes 24.6122
lfemur -12.2095 3.2808 -13.221
ltibia 66.5191
lfoot 21.6094 -2.37549
ltoes 17.1499
3713
root 16.0223 20.4458 -10.9385 1665.16 81.7497 226.451
lowerback 8.53249 -1.69602 4.4433
upperback 1.90196 -1.55489 4.39686
thorax -2.81089 -0.724337 2.22989
lowerneck -14.9424 -4.47135 -10.4405
upperneck 36.9402 -3.73841 4.71545
head 15.986 -1.92016 3.3578
rclavicle -1.87852e-014 3.18055e-014
rhumerus -30.8466 -9.34342 -77.6719
rradius 34.9649
rwrist -14.2204
rhand -23.4753 13.2707
rfingers 7.12502
rthumb 2.9841 -16.6882
lclavicle -1.87852e-014 3.18055e-014
lhumerus -32.9457 7.23922 86.2998
lradius 22.3736
lwrist -7.74891
lhand -17.353 21.3177
lfingers 7.12502
lthumb 8.8947 51.1102
rfemur -16.0516 -5.06895 30.1354
rtibia 36.593
rfoot -19.2477 3.96992
rtoes 15.7258
lfemur -13.9178 3.55813 -13.1606
ltibia 69.0454
lfoot 19.5862 -2.18388
ltoes 18.0935
3714
root 16.14 20.501 -10.9441 1672.45 81.196 233.833
lowerback 8.32163 -1.53666 5.68763
upperback 1.85524 -1.22844 4.56268
thorax -2.76731 -0.562981 1.66794
lowerneck -14.7506 -4.55432 -10.4069
upperneck 36.8662 -3.96447 4.89478
head 15.9287 -1.98399 3.38861
rclavicle 3.97569e-016 6.04305e-014
rhumerus -31.3353 -9.41204 -77.802
rradius 36.0705
rwrist -14.2296
rhand -23.5397 12.9354
rfingers 7.12502
rthumb 2.92189 -17.0243
lclavicle 3.97569e-016 6.04305e-014
lhumerus -33.5847 7.22614 86.0102
lradius 22.4867
lwrist -7.04423
lhand -17.1033 21.6377
lfingers 7.12502
lthumb 9.13564 51.4198
rfemur -14.7605 -4.41981 31.4015
rtibia 35.0636
rfoot -18.8012 3.80057
rtoes 15.9836
lfemur -15.2984 4.03393 -11.7078
ltibia 71.2147
lfoot 17.9976 -1.96469
ltoes 20.4297
3715
root 16.2528 20.5396 -10.949 1674.47 81.1758 236.087
lowerback 8.36262 -1.40354 5.96197
upperback 1.856 -1.02727 4.48661
thorax -2.79282 -0.465695 1.41513
lowerneck -14.6796 -4.56285 -10.1185
upperneck 36.812 -4.05625 4.8316
head 15.8796 -1.98937 3.29174
rclavicle -8.64713e-015 -2.8625e-014
rhumerus -31.5213 -9.3833 -77.9593
rradius 36.6852
rwrist -14.4748
rhand -23.2177 12.9318
rfingers 7.12502
rthumb 3.23283 -17.0234
lclavicle -8.64713e-015 -2.8625e-014
lhumerus -34.1777 7.21482 85.6946
lradius 22.6183
lwrist -6.43816
lhand -17.0156 21.9488
lfingers 7.12502
lthumb 9.22029 51.7272
rfemur -13.1973 -4.42512 31.5951
rtibia 33.3653
rfoot -18.4379 3.80597
rtoes 14.8667
lfemur -16.5278 4.36078 -11.3773
ltibia 73.1945
lfoot 16.4733 -2.09638
ltoes 19.9321
3716
root 16.3759 20.6138 -10.93 1673.91 81.4127 236.089
lowerback 8.76274 -1.23881 5.60012
upperback 1.95792 -0.81784 4.36848
thorax -2.90156 -0.361615 1.47728
lowerneck -14.5864 -4.62706 -9.82152
upperneck 36.637 -4.21773 4.69863
head 15.7697 -2.03356 3.14548
rclavicle -2.30093e-014 4.53229e-014
rhumerus -31.7258 -9.5785 -77.9798
rradius 37.2952
rwrist -14.5129
rhand -22.7676 12.6326
rfingers 7.12502
rthumb 3.66754 -17.3155
lclavicle -2.30093e-014 4.53229e-014
lhumerus -34.7055 7.0468 85.469
lradius 22.7779
lwrist -5.73624
lhand -16.7844 21.9781
lfingers 7.12502
lthumb 9.44339 51.7466
rfemur -10.9824 -2.68192 30.9182
rtibia 32.0569
rfoot -18.0513 5.43871
rtoes 29.2089
lfemur -17.1573 4.59823 -11.4249
ltibia 74.6922
lfoot 15.059 -2.50148
ltoes 20.0088
3717
root 16.4924 20.6242 -10.912 1676.72 81.2651 239.278
lowerback 8.86845 -1.07389 5.80152
upperback 2.07724 -0.570331 4.41498
thorax -2.83379 -0.234457 1.38569
lowerneck -14.5088 -4.69122 -9.6397
upperneck 36.4074 -4.41034 4.73475
head 15.6483 -2.08618 3.08611
rclavicle -3.47873e-016 -4.85035e-014
rhumerus -32.072 -9.53299 -78.1634
rradius 38.3188
rwrist -15.0684
rhand -22.9968 12.3418
rfingers 7.12502
rthumb 3.44618 -17.6101
lclavicle -3.47873e-016 -4.85035e-014
lhumerus -35.1656 7.11404 85.1529
lradius 22.9641
lwrist -4.97476
lhand -16.4504 21.717
lfingers 7.12502
lthumb 9.76567 51.4706
rfemur -9.50984 -3.1335 31.6891
rtibia 30.4926
rfoot -18.05 4.26077
rtoes 21.8645
lfemur -18.2209 4.98883 -10.77
ltibia 76.4232
lfoot 13.7512 -3.00875
ltoes 20.7636
3718
root 16.5931 20.6499 -10.9324 1677.87 81.6357 240.267
lowerback 8.59506 -0.948844 5.80678
upperback 2.03474 -0.442325 4.24962
thorax -2.72462 -0.174331 1.19225
lowerneck -14.5008 -4.68153 -9.69415
upperneck 36.2389 -4.45356 4.89529
head 15.5729 -2.09252 3.15101
rclavicle -1.59525e-014 -1.35174e-014
rhumerus -31.691 -8.88828 -78.4848
rradius 38.4623
rwrist -16.3594
rhand -23.8202 12.8758
rfingers 7.12502
rthumb 2.65101 -17.0875
lclavicle -1.59525e-014 -1.35174e-014
lhumerus -35.5809 7.33692 84.8996
lradius 23.1671
lwrist -4.20967
lhand -16.6589 21.6952
lfingers 7.12502
lthumb 9.56446 51.4581
rfemur -8.76508 -3.74017 31.5344
rtibia 29.2322
rfoot -17.9624 4.05054
rtoes 15.9929
lfemur -19.8973 5.10907 -11.1302
ltibia 77.8721
lfoot 12.5941 -2.72368
ltoes 18.9066
3719
root 16.6944 20.6468 -10.9366 1678.56 81.398 241.166
lowerback 8.6646 -0.975442 6.11536
upperback 2.05084 -0.437387 4.29679
thorax -2.74846 -0.171296 1.06997
lowerneck -14.4915 -4.67013 -9.7307
upperneck 36.1096 -4.44744 4.9261
head 15.5081 -2.09262 3.16658
rclavicle 4.12478e-015 3.10104e-014
rhumerus -31.6011 -8.40479 -78.676
rradius 38.9098
rwrist -17.1099
rhand -24.2969 13.267
rfingers 7.12502
rthumb 2.19062 -16.7015
lclavicle 4.12478e-015 3.10104e-014
lhumerus -36.0553 7.24035 84.8515
lradius 23.4212
lwrist -3.18996
lhand -16.8576 21.853
lfingers 7.12502
lthumb 9.37277 51.6246
rfemur -7.2673 -4.43514 31.8289
rtibia 27.6703
rfoot -17.6727 4.10611
rtoes 13.8608
lfemur -21.3105 4.8278 -10.8092
ltibia 79.3536
lfoot 11.3294 -2.4027
ltoes 18.0285
3720
root 16.8183 20.7112 -10.9206 1679.6 81.2828 242.586
lowerback 8.8673 -0.89251 6.16734
upperback 2.10632 -0.303222 4.30559
thorax -2.8001 -0.103753 1.03737
lowerneck -14.4561 -4.69844 -9.63634
upperneck 36.0662 -4.53795 4.96031
head 15.4842 -2.11278 3.14755
rclavicle 1.2424e-015 -1.74931e-014
rhumerus -31.7037 -8.35288 -78.8003
rradius 39.3576
rwrist -17.2668
rhand -24.3176 13.3793
rfingers 7.12502
rthumb 2.17064 -16.5894
lclavicle 1.2424e-015 -1.74931e-014
lhumerus -36.5818 7.01579 84.688
lradius 23.6994
lwrist -2.3966
lhand -16.599 21.8943
lfingers 7.12502
lthumb 9.62226 51.6545
rfemur -6.08534 -4.42211 32.0355
rtibia 26.6667
rfoot -17.1135 4.37739
rtoes 16.5446
lfemur -22.0763 4.76429 -10.3977
ltibia 80.2214
lfoot 10.2308 -2.58849
ltoes 19.0627
